<svg width="32" height="32" viewBox="0 0 32 32" fill="none" xmlns="http://www.w3.org/2000/svg">
<rect width="32" height="32" rx="6" fill="white"/>
<g transform="translate(4, 4)">
<path d="M15.8091 0C18.9278 0.000114482 24.3044 2.41453 24.1968 8.07883C24.1108 12.6103 19.3577 14.8572 16.9917 15.4144L22.6917 21.6364H15.8091L5.69997 11.8858V19.5005L0 22.658V0H15.8091ZM5.82578 4.83984L6.31615 5.36435L11.304 10.7063L11.4149 10.825L11.5856 10.8182L15.8308 10.6336L15.8743 10.6317L15.9158 10.6206C16.399 10.4863 17.1064 10.1791 17.6889 9.68278C18.2763 9.18222 18.7577 8.46796 18.7091 7.53754C18.66 6.60246 18.094 5.95316 17.4427 5.53338C16.7986 5.11832 16.0488 4.91007 15.5465 4.84295L15.5214 4.83984H5.82578Z" fill="black"/>
</g>
</svg>
